<svg width="40" height="40" viewBox="0 0 40 40" fill="none" xmlns="http://www.w3.org/2000/svg">
<path d="M4 13C4 10.7909 5.79086 9 8 9H32C34.2091 9 36 10.7909 36 13V27C36 29.2091 34.2091 31 32 31H8C5.79086 31 4 29.2091 4 27V13Z" fill="#F2F3F4"/>
<path d="M14.0333 14.9137V14.129C14.0333 13.5081 13.5699 13 13.0035 13C12.4371 13 11.9737 13.5081 11.9737 14.129V14.9306C11.5772 15.0266 11.1859 15.179 10.8306 15.4105C10.1097 15.8734 9.497 16.6976 9.50215 17.8887C9.50729 19.029 10.12 19.7516 10.774 20.1863C11.3323 20.5536 12.0259 20.7838 12.5831 20.9687L12.607 20.9766L12.6945 21.0048C13.3433 21.2194 13.8119 21.3831 14.1363 21.6089C14.3989 21.7895 14.4401 21.9081 14.4401 22.0718C14.4452 22.354 14.3474 22.5234 14.1363 22.6645C13.884 22.8395 13.4772 22.9468 13.0344 22.9298C12.4628 22.9073 11.9273 22.7097 11.2271 22.45C11.1086 22.4105 10.9851 22.3597 10.8563 22.3145C10.3157 22.1169 9.73385 22.4331 9.55364 23.0258C9.37342 23.6185 9.66177 24.2565 10.2024 24.454C10.3054 24.4935 10.4084 24.5331 10.5165 24.5726C10.9387 24.7363 11.4382 24.9226 11.9685 25.0468V25.871C11.9685 26.4919 12.4319 27 12.9983 27C13.5647 27 14.0281 26.4919 14.0281 25.871V25.1032C14.4401 25.0073 14.852 24.8492 15.2227 24.5952C15.959 24.0927 16.5151 23.2347 16.4997 22.0548C16.4842 20.9089 15.8972 20.1637 15.233 19.7065C14.6515 19.3018 13.926 19.0604 13.354 18.8701L13.3227 18.8597L13.2867 18.8484C12.6276 18.6339 12.1539 18.4702 11.8295 18.2556C11.5618 18.075 11.5566 17.979 11.5566 17.8774C11.5566 17.6685 11.6287 17.5105 11.8759 17.3524C12.159 17.1718 12.5761 17.0645 12.9829 17.0702C13.4772 17.0815 14.023 17.2 14.5894 17.3637C15.1403 17.5218 15.7067 17.1661 15.8509 16.5621C15.9951 15.9581 15.6707 15.3371 15.1197 15.179C14.7851 15.0774 14.4195 14.9815 14.0333 14.9137Z" fill="#38ADC2"/>
<path d="M18.5 15C18.5 14.4477 18.9477 14 19.5 14H29.5C30.0523 14 30.5 14.4477 30.5 15C30.5 15.5523 30.0523 16 29.5 16H19.5C18.9477 16 18.5 15.5523 18.5 15Z" fill="#979899"/>
<path d="M18.5 20C18.5 19.4477 18.9477 19 19.5 19H29.5C30.0523 19 30.5 19.4477 30.5 20C30.5 20.5523 30.0523 21 29.5 21H19.5C18.9477 21 18.5 20.5523 18.5 20Z" fill="#979899"/>
<path d="M18.5 25C18.5 24.4477 18.9477 24 19.5 24H29.5C30.0523 24 30.5 24.4477 30.5 25C30.5 25.5523 30.0523 26 29.5 26H19.5C18.9477 26 18.5 25.5523 18.5 25Z" fill="#979899"/>
</svg>
