<svg width="40" height="40" viewBox="0 0 40 40" fill="none" xmlns="http://www.w3.org/2000/svg">
<path d="M4 13C4 10.7909 5.79086 9 8 9H32C34.2091 9 36 10.7909 36 13V27C36 29.2091 34.2091 31 32 31H8C5.79086 31 4 29.2091 4 27V13Z" fill="#F2F3F4"/>
<path fill-rule="evenodd" clip-rule="evenodd" d="M10.8621 16.2623C11.1621 15.4931 11.8345 15 12.5897 15H17.369C18.1241 15 18.7966 15.4931 19.0966 16.2623L19.6966 17.8008C19.7483 17.9487 19.8517 18.0671 19.9862 18.1361C20.3586 18.3432 20.6276 18.7377 20.7103 19.1913L20.9586 20.5917L20.9625 20.6176C20.9818 20.7459 21 20.8667 21 20.9961V21.3412C21 22.0217 20.7103 22.6331 20.2448 23.0079V24.5858C20.2448 24.8126 20.0793 25 19.8724 25H18.3724C18.1655 25 18 24.8126 18 24.5858V23.4714C17.0276 23.5108 15.9414 23.5404 15 23.5404C14.0586 23.5404 12.9621 23.5108 12 23.4714V24.5858C12 24.8126 11.8345 25 11.6276 25H10.1276C9.92069 25 9.75517 24.8126 9.75517 24.5858V23.0079C9.3 22.6331 9 22.0217 9 21.3412V20.9961C9 20.858 9.01034 20.7199 9.04138 20.5917L9.28966 19.1913C9.37241 18.7377 9.64138 18.3432 10.0138 18.1361C10.1379 18.0671 10.2414 17.9487 10.3034 17.8008L10.8621 16.2623ZM11.1517 17.6627C11.0586 17.8698 11.1414 18.1262 11.3276 18.2347C11.3897 18.2643 11.4517 18.284 11.5241 18.2742C12.2069 18.215 14.0379 18.1361 14.9793 18.1361C15.9207 18.1361 17.7517 18.215 18.4345 18.2742C18.6414 18.2939 18.8276 18.1164 18.8483 17.8797C18.8483 17.8008 18.8483 17.7318 18.8069 17.6627L18.0931 16.0651C18.031 15.927 17.8966 15.8383 17.7621 15.8383H12.2069C12.0621 15.8383 11.9379 15.927 11.8759 16.0651L11.1621 17.6627H11.1517ZM12 21C12 21.5523 11.5523 22 11 22C10.4477 22 10 21.5523 10 21C10 20.4477 10.4477 20 11 20C11.5523 20 12 20.4477 12 21ZM19 22C19.5523 22 20 21.5523 20 21C20 20.4477 19.5523 20 19 20C18.4477 20 18 20.4477 18 21C18 21.5523 18.4477 22 19 22Z" fill="#38ADC2"/>
<path d="M22 15C22 14.4444 22.4245 14 22.9552 14H30.0448C30.5755 14 31 14.4444 31 15C31 15.5556 30.5755 16 30.0448 16H22.9552C22.4245 16 22 15.5556 22 15Z" fill="#979899"/>
<path d="M22 20C22 19.4444 22.4245 19 22.9552 19H30.0448C30.5755 19 31 19.4444 31 20C31 20.5556 30.5755 21 30.0448 21H22.9552C22.4245 21 22 20.5556 22 20Z" fill="#979899"/>
<path d="M22 25C22 24.4444 22.4245 24 22.9552 24H30.0448C30.5755 24 31 24.4444 31 25C31 25.5556 30.5755 26 30.0448 26H22.9552C22.4245 26 22 25.5556 22 25Z" fill="#979899"/>
</svg>
