<svg width="40" height="40" viewBox="0 0 40 40" fill="none" xmlns="http://www.w3.org/2000/svg">
<path d="M4 13C4 10.7909 5.79086 9 8 9H32C34.2091 9 36 10.7909 36 13V27C36 29.2091 34.2091 31 32 31H8C5.79086 31 4 29.2091 4 27V13Z" fill="#F2F3F4"/>
<path fill-rule="evenodd" clip-rule="evenodd" d="M9.25 15C9.25 13.4812 10.4812 12.25 12 12.25H27C28.5188 12.25 29.75 13.4812 29.75 15V17C29.75 17.4142 29.4142 17.75 29 17.75C28.5858 17.75 28.25 17.4142 28.25 17V15C28.25 14.3096 27.6904 13.75 27 13.75H12C11.3096 13.75 10.75 14.3096 10.75 15V24C10.75 24.6904 11.3096 25.25 12 25.25H18C18.4142 25.25 18.75 25.5858 18.75 26C18.75 26.4142 18.4142 26.75 18 26.75H12C10.4812 26.75 9.25 25.5188 9.25 24V15Z" fill="#979899"/>
<path fill-rule="evenodd" clip-rule="evenodd" d="M12.5 16.25C12.5 15.8358 12.8358 15.5 13.25 15.5H23.25C23.6642 15.5 24 15.8358 24 16.25C24 16.6642 23.6642 17 23.25 17H13.25C12.8358 17 12.5 16.6642 12.5 16.25Z" fill="#979899"/>
<path fill-rule="evenodd" clip-rule="evenodd" d="M12.5 19.25C12.5 18.8358 12.8358 18.5 13.25 18.5H19.25C19.6642 18.5 20 18.8358 20 19.25C20 19.6642 19.6642 20 19.25 20H13.25C12.8358 20 12.5 19.6642 12.5 19.25Z" fill="#979899"/>
<path fill-rule="evenodd" clip-rule="evenodd" d="M12.5 22.25C12.5 21.8358 12.8358 21.5 13.25 21.5H18.25C18.6642 21.5 19 21.8358 19 22.25C19 22.6642 18.6642 23 18.25 23H13.25C12.8358 23 12.5 22.6642 12.5 22.25Z" fill="#979899"/>
<path fill-rule="evenodd" clip-rule="evenodd" d="M25 24.5C26.3807 24.5 27.5 23.3807 27.5 22C27.5 20.6193 26.3807 19.5 25 19.5C23.6193 19.5 22.5 20.6193 22.5 22C22.5 23.3807 23.6193 24.5 25 24.5ZM25 26C27.2091 26 29 24.2091 29 22C29 19.7909 27.2091 18 25 18C22.7909 18 21 19.7909 21 22C21 24.2091 22.7909 26 25 26Z" fill="#38ADC2"/>
<path fill-rule="evenodd" clip-rule="evenodd" d="M26.9697 23.9697C27.2626 23.6768 27.7374 23.6768 28.0303 23.9697L30.5303 26.4697C30.8232 26.7626 30.8232 27.2374 30.5303 27.5303C30.2374 27.8232 29.7626 27.8232 29.4697 27.5303L26.9697 25.0303C26.6768 24.7374 26.6768 24.2626 26.9697 23.9697Z" fill="#38ADC2"/>
</svg>
