<svg width="40" height="40" viewBox="0 0 40 40" fill="none" xmlns="http://www.w3.org/2000/svg">
<path d="M4 13C4 10.7909 5.79086 9 8 9H32C34.2091 9 36 10.7909 36 13V27C36 29.2091 34.2091 31 32 31H8C5.79086 31 4 29.2091 4 27V13Z" fill="#F2F3F4"/>
<path d="M10 26.5C10 26.5 9 26.5 9 25.5C9 24.5 10 21.5 15 21.5C20 21.5 21 24.5 21 25.5C21 26.5 20 26.5 20 26.5H10ZM15 20.5C16.66 20.5 18 19.16 18 17.5C18 15.84 16.66 14.5 15 14.5C13.34 14.5 12 15.84 12 17.5C12 19.16 13.34 20.5 15 20.5Z" fill="#38ADC2"/>
<path d="M18.5 13.5C17.1147 13.5 16 14.6255 16 16C16 17.3745 17.1255 18.5 18.5 18.5C19.8745 18.5 21 17.3745 21 16C21 14.6255 19.8745 13.5 18.5 13.5ZM18.5 16.2489C18.3593 16.2489 18.2511 16.1407 18.2511 16V15.0043C18.2511 14.8636 18.3593 14.7554 18.5 14.7554C18.6407 14.7554 18.7489 14.8636 18.7489 15.0043V16C18.7489 16.1407 18.6407 16.2489 18.5 16.2489ZM18.7489 17.0065C18.7489 17.1472 18.6407 17.2554 18.5 17.2554C18.3593 17.2554 18.2511 17.1472 18.2511 17.0065C18.2511 16.8658 18.3593 16.7576 18.5 16.7576C18.6407 16.7576 18.7489 16.8658 18.7489 17.0065Z" fill="#F44336"/>
<path d="M22 15.5C22 14.9444 22.4245 14.5 22.9552 14.5H30.0448C30.5755 14.5 31 14.9444 31 15.5C31 16.0556 30.5755 16.5 30.0448 16.5H22.9552C22.4245 16.5 22 16.0556 22 15.5Z" fill="#979899"/>
<path d="M22 20.5C22 19.9444 22.4245 19.5 22.9552 19.5H30.0448C30.5755 19.5 31 19.9444 31 20.5C31 21.0556 30.5755 21.5 30.0448 21.5H22.9552C22.4245 21.5 22 21.0556 22 20.5Z" fill="#979899"/>
<path d="M22 25.5C22 24.9444 22.4245 24.5 22.9552 24.5H30.0448C30.5755 24.5 31 24.9444 31 25.5C31 26.0556 30.5755 26.5 30.0448 26.5H22.9552C22.4245 26.5 22 26.0556 22 25.5Z" fill="#979899"/>
</svg>
