<svg width="40" height="40" viewBox="0 0 40 40" fill="none" xmlns="http://www.w3.org/2000/svg">
<path d="M4 13C4 10.7909 5.79086 9 8 9H32C34.2091 9 36 10.7909 36 13V27C36 29.2091 34.2091 31 32 31H8C5.79086 31 4 29.2091 4 27V13Z" fill="#F2F3F4"/>
<path d="M21 15C21 14.4477 21.4477 14 22 14H32C32.5523 14 33 14.4477 33 15C33 15.5523 32.5523 16 32 16H22C21.4477 16 21 15.5523 21 15Z" fill="#979899"/>
<path d="M24 20C24 19.4477 24.4477 19 25 19H32C32.5523 19 33 19.4477 33 20C33 20.5523 32.5523 21 32 21H25C24.4477 21 24 20.5523 24 20Z" fill="#979899"/>
<path d="M24 25C24 24.4477 24.4477 24 25 24H32C32.5523 24 33 24.4477 33 25C33 25.5523 32.5523 26 32 26H25C24.4477 26 24 25.5523 24 25Z" fill="#979899"/>
<path d="M17.5 27C18.4283 27 19.3185 26.6313 19.9749 25.9749C20.6313 25.3185 21 24.4283 21 23.5C21 22.5717 20.6313 21.6815 19.9749 21.0251C19.3185 20.3687 18.4283 20 17.5 20C16.5717 20 15.6815 20.3687 15.0251 21.0251C14.3687 21.6815 14 22.5717 14 23.5C14 24.4283 14.3687 25.3185 15.0251 25.9749C15.6815 26.6313 16.5717 27 17.5 27ZM19.179 22.507L17.844 24.733C17.7853 24.8308 17.7051 24.9139 17.6095 24.9761C17.5139 25.0382 17.4053 25.0777 17.2922 25.0916C17.179 25.1055 17.0641 25.0934 16.9563 25.0562C16.8485 25.019 16.7506 24.9577 16.67 24.877L15.896 24.104C15.8021 24.0101 15.7494 23.8828 15.7494 23.75C15.7494 23.6172 15.8021 23.4899 15.896 23.396C15.9899 23.3021 16.1172 23.2494 16.25 23.2494C16.3828 23.2494 16.5101 23.3021 16.604 23.396L17.151 23.944L18.321 21.993C18.3547 21.9367 18.3993 21.8875 18.452 21.8484C18.5047 21.8093 18.5647 21.7809 18.6284 21.7649C18.6921 21.749 18.7583 21.7457 18.8233 21.7553C18.8882 21.7649 18.9507 21.7873 19.007 21.821C19.0633 21.8547 19.1125 21.8993 19.1516 21.952C19.1907 22.0047 19.2191 22.0647 19.2351 22.1284C19.251 22.1921 19.2543 22.2583 19.2447 22.3233C19.2351 22.3882 19.2127 22.4507 19.179 22.507ZM16 16C16 16.7956 15.6839 17.5587 15.1213 18.1213C14.5587 18.6839 13.7956 19 13 19C12.2044 19 11.4413 18.6839 10.8787 18.1213C10.3161 17.5587 10 16.7956 10 16C10 15.2044 10.3161 14.4413 10.8787 13.8787C11.4413 13.3161 12.2044 13 13 13C13.7956 13 14.5587 13.3161 15.1213 13.8787C15.6839 14.4413 16 15.2044 16 16Z" fill="#38ADC2"/>
<path fill-rule="evenodd" clip-rule="evenodd" d="M18.321 21.993L17.151 23.944L16.604 23.396C16.5438 23.3358 16.4699 23.2925 16.3896 23.2692C16.3446 23.2562 16.2977 23.2494 16.25 23.2494C16.1172 23.2494 15.9899 23.3021 15.896 23.396C15.8021 23.4899 15.7494 23.6172 15.7494 23.75C15.7494 23.8828 15.8021 24.0101 15.896 24.104L16.67 24.877C16.7506 24.9577 16.8485 25.019 16.9563 25.0562C17.0641 25.0934 17.179 25.1055 17.2922 25.0916C17.4053 25.0777 17.5139 25.0382 17.6095 24.9761C17.7016 24.9162 17.7794 24.8369 17.8374 24.7437C17.8397 24.7402 17.8418 24.7366 17.844 24.733L19.179 22.507C19.2127 22.4507 19.2351 22.3882 19.2447 22.3233C19.2543 22.2583 19.251 22.1921 19.2351 22.1284C19.2191 22.0647 19.1907 22.0047 19.1516 21.952C19.1125 21.8993 19.0633 21.8547 19.007 21.821C18.9507 21.7873 18.8882 21.7649 18.8233 21.7553C18.7583 21.7457 18.6921 21.749 18.6284 21.7649C18.5647 21.7809 18.5047 21.8093 18.452 21.8484C18.3993 21.8875 18.3547 21.9367 18.321 21.993ZM19.9749 25.9749C19.3185 26.6313 18.4283 27 17.5 27C16.5717 27 15.6815 26.6313 15.0251 25.9749C14.3687 25.3185 14 24.4283 14 23.5C14 22.5717 14.3687 21.6815 15.0251 21.0251C15.6815 20.3687 16.5717 20 17.5 20C18.4283 20 19.3185 20.3687 19.9749 21.0251C20.6313 21.6815 21 22.5717 21 23.5C21 24.4283 20.6313 25.3185 19.9749 25.9749ZM15.1213 18.1213C15.6839 17.5587 16 16.7956 16 16C16 15.2044 15.6839 14.4413 15.1213 13.8787C14.5587 13.3161 13.7956 13 13 13C12.2044 13 11.4413 13.3161 10.8787 13.8787C10.3161 14.4413 10 15.2044 10 16C10 16.7956 10.3161 17.5587 10.8787 18.1213C11.4413 18.6839 12.2044 19 13 19C13.7956 19 14.5587 18.6839 15.1213 18.1213Z" fill="#38ADC2"/>
<path d="M7 24C7 25 8 25 8 25H13.256C13.0861 24.5182 12.9996 24.0109 13 23.5C13 22.857 13.1378 22.2214 13.4041 21.6361C13.6705 21.0508 14.0592 20.5294 14.544 20.107C14.0773 20.037 13.5627 20.0013 13 20C8 20 7 23 7 24Z" fill="#38ADC2"/>
<path fill-rule="evenodd" clip-rule="evenodd" d="M8 25H13.256C13.1418 24.676 13.0652 24.3404 13.0274 24C13.009 23.8342 12.9999 23.6673 13 23.5C13 22.857 13.1378 22.2214 13.4041 21.6361C13.5008 21.4236 13.6137 21.2195 13.7414 21.0255C13.9654 20.6852 14.2352 20.376 14.544 20.107C14.1487 20.0477 13.719 20.013 13.2548 20.003C13.171 20.0012 13.0861 20.0002 13 20C8 20 7 23 7 24C7 25 8 25 8 25ZM12.5973 21.0073C10.565 21.0819 9.44502 21.7192 8.83211 22.3321C8.15376 23.0104 8.00143 23.7497 8.00001 23.9965C8.00266 23.997 8.00538 23.9975 8.00815 23.998C8.01403 23.999 8.01888 23.9996 8.02235 24H12.0224C12.0074 23.8337 11.9999 23.6666 12 23.4991C12 23.4989 12 23.4994 12 23.4991" fill="#38ADC2"/>
</svg>
