<svg width="40" height="40" viewBox="0 0 40 40" fill="none" xmlns="http://www.w3.org/2000/svg">
<path d="M4 13C4 10.7909 5.79086 9 8 9H32C34.2091 9 36 10.7909 36 13V27C36 29.2091 34.2091 31 32 31H8C5.79086 31 4 29.2091 4 27V13Z" fill="#F2F3F4"/>
<path d="M10 26C10 26 9 26 9 25C9 24 10 21 15 21C20 21 21 24 21 25C21 26 20 26 20 26H10ZM15 20C16.66 20 18 18.66 18 17C18 15.34 16.66 14 15 14C13.34 14 12 15.34 12 17C12 18.66 13.34 20 15 20Z" fill="#38ADC2"/>
<path d="M22 15C22 14.4444 22.4245 14 22.9552 14H30.0448C30.5755 14 31 14.4444 31 15C31 15.5556 30.5755 16 30.0448 16H22.9552C22.4245 16 22 15.5556 22 15Z" fill="#979899"/>
<path d="M22 20C22 19.4444 22.4245 19 22.9552 19H30.0448C30.5755 19 31 19.4444 31 20C31 20.5556 30.5755 21 30.0448 21H22.9552C22.4245 21 22 20.5556 22 20Z" fill="#979899"/>
<path d="M22 25C22 24.4444 22.4245 24 22.9552 24H30.0448C30.5755 24 31 24.4444 31 25C31 25.5556 30.5755 26 30.0448 26H22.9552C22.4245 26 22 25.5556 22 25Z" fill="#979899"/>
</svg>
