<svg width="40" height="40" viewBox="0 0 40 40" fill="none" xmlns="http://www.w3.org/2000/svg">
<path d="M4 13C4 10.7909 5.79086 9 8 9H32C34.2091 9 36 10.7909 36 13V27C36 29.2091 34.2091 31 32 31H8C5.79086 31 4 29.2091 4 27V13Z" fill="#F2F3F4"/>
<path d="M24.0905 20.5C25.993 20.5 27.536 18.9326 27.536 17C27.536 15.0674 25.9944 13.5 24.0905 13.5C22.1866 13.5 20.6451 15.0674 20.6451 17C20.6451 18.9326 22.1881 20.5 24.0905 20.5Z" fill="#38ADC2"/>
<path d="M16.2078 27.5C16.0032 27.1363 15.9009 26.7365 15.9095 26.3338C15.9095 24.7534 16.8486 23.1254 18.5849 21.9938C17.7182 21.7687 16.8159 21.6575 15.9095 21.6676C10.3825 21.6662 9 25.1662 9 26.3338C9 27.5014 10.3825 27.5 10.3825 27.5H16.2078Z" fill="#979899"/>
<path d="M14.7373 20.5C16.3229 20.5 17.6088 19.1938 17.6088 17.5831C17.6088 15.9724 16.3229 14.6662 14.7373 14.6662C13.1516 14.6662 11.8658 15.9724 11.8658 17.5831C11.8658 19.1938 13.1516 20.5 14.7373 20.5Z" fill="#979899"/>
<path d="M18.5635 27.5C18.5635 27.5 17.1811 27.5 17.1811 26.3338C17.1811 25.1676 18.5635 21.6676 24.0905 21.6676C29.6175 21.6676 31 25.1676 31 26.3338C31 27.5 29.6175 27.5 29.6175 27.5H18.5635Z" fill="#38ADC2"/>
<path d="M28.5 12.5C27.12 12.5 26 13.62 26 15C26 16.38 27.12 17.5 28.5 17.5C29.88 17.5 31 16.38 31 15C31 13.62 29.88 12.5 28.5 12.5ZM28.5 15.25C28.3625 15.25 28.25 15.1375 28.25 15V14C28.25 13.8625 28.3625 13.75 28.5 13.75C28.6375 13.75 28.75 13.8625 28.75 14V15C28.75 15.1375 28.6375 15.25 28.5 15.25ZM28.75 16C28.75 16.1381 28.6381 16.25 28.5 16.25C28.3619 16.25 28.25 16.1381 28.25 16C28.25 15.8619 28.3619 15.75 28.5 15.75C28.6381 15.75 28.75 15.8619 28.75 16Z" fill="#FF9900"/>
</svg>
