<svg width="24" height="24" viewBox="0 0 24 24" fill="none" xmlns="http://www.w3.org/2000/svg">
<path d="M14.813 18.5626C14.813 19.3085 14.5167 20.0239 13.9892 20.5514C13.4618 21.0788 12.7464 21.3751 12.0004 21.3751C11.2545 21.3751 10.5391 21.0788 10.0117 20.5514C9.48422 20.0239 9.1879 19.3085 9.1879 18.5626M12.6764 5.4402L11.302 5.43739C8.16695 5.42989 5.44535 7.97711 5.42378 11.0625V14.6156C5.42378 15.3563 5.33003 16.0791 4.92596 16.6951L4.6569 17.1057C4.2472 17.7282 4.68784 18.5626 5.42378 18.5626H18.5771C19.3131 18.5626 19.7527 17.7282 19.344 17.1057L19.0749 16.6951C18.6718 16.0791 18.5771 15.3553 18.5771 14.6147V11.0634C18.5396 7.97711 15.8114 5.4477 12.6764 5.4402ZM12.0005 2.62487C12.4978 2.62487 12.9747 2.82242 13.3264 3.17405C13.678 3.52569 13.8755 4.00261 13.8755 4.4999V5.43741H10.1255V4.4999C10.1255 4.00261 10.323 3.52569 10.6747 3.17405C11.0263 2.82242 11.5032 2.62487 12.0005 2.62487Z" stroke="#DADBDC" stroke-width="2" stroke-linecap="round" stroke-linejoin="round"/>
</svg>
