<svg width="24" height="24" viewBox="0 0 24 24" fill="none" xmlns="http://www.w3.org/2000/svg">
<path fill-rule="evenodd" clip-rule="evenodd" d="M4 6C4 4.34315 5.34315 3 7 3H17C18.6569 3 20 4.34315 20 6V18C20 19.6569 18.6569 21 17 21H7C5.34315 21 4 19.6569 4 18V6ZM7 5C6.44772 5 6 5.44772 6 6V18C6 18.5523 6.44772 19 7 19H17C17.5523 19 18 18.5523 18 18V6C18 5.44772 17.5523 5 17 5H7Z" fill="#DADBDC"/>
<path fill-rule="evenodd" clip-rule="evenodd" d="M7.5 9C7.5 8.6134 7.8134 8.3 8.2 8.3H15.8C16.1866 8.3 16.5 8.6134 16.5 9C16.5 9.3866 16.1866 9.7 15.8 9.7H8.2C7.8134 9.7 7.5 9.3866 7.5 9Z" fill="#DADBDC"/>
<path d="M7.5 13.2C7.5 12.8134 7.8134 12.5 8.2 12.5H8.8C9.1866 12.5 9.5 12.8134 9.5 13.2C9.5 13.5866 9.1866 13.9 8.8 13.9H8.2C7.8134 13.9 7.5 13.5866 7.5 13.2Z" fill="#DADBDC"/>
<path d="M11 13.2C11 12.8134 11.3134 12.5 11.7 12.5H12.3C12.6866 12.5 13 12.8134 13 13.2C13 13.5866 12.6866 13.9 12.3 13.9H11.7C11.3134 13.9 11 13.5866 11 13.2Z" fill="#DADBDC"/>
<path d="M14.5 13.2C14.5 12.8134 14.8134 12.5 15.2 12.5H15.8C16.1866 12.5 16.5 12.8134 16.5 13.2C16.5 13.5866 16.1866 13.9 15.8 13.9H15.2C14.8134 13.9 14.5 13.5866 14.5 13.2Z" fill="#DADBDC"/>
<path d="M7.5 16.6C7.5 16.2134 7.8134 15.9 8.2 15.9H8.8C9.1866 15.9 9.5 16.2134 9.5 16.6C9.5 16.9866 9.1866 17.3 8.8 17.3H8.2C7.8134 17.3 7.5 16.9866 7.5 16.6Z" fill="#DADBDC"/>
<path d="M11 16.6C11 16.2134 11.3134 15.9 11.7 15.9H12.3C12.6866 15.9 13 16.2134 13 16.6C13 16.9866 12.6866 17.3 12.3 17.3H11.7C11.3134 17.3 11 16.9866 11 16.6Z" fill="#DADBDC"/>
<path d="M14.5 16.6C14.5 16.2134 14.8134 15.9 15.2 15.9H15.8C16.1866 15.9 16.5 16.2134 16.5 16.6C16.5 16.9866 16.1866 17.3 15.8 17.3H15.2C14.8134 17.3 14.5 16.9866 14.5 16.6Z" fill="#DADBDC"/>
</svg>
