<svg width="24" height="24" viewBox="0 0 24 24" fill="none" xmlns="http://www.w3.org/2000/svg">
<path fill-rule="evenodd" clip-rule="evenodd" d="M16.5 3C16.9971 3 17.4 3.40294 17.4 3.9V4.8H18.3C19.7912 4.8 21 6.00883 21 7.5V18.3C21 19.7912 19.7912 21 18.3 21H5.7C4.20883 21 3 19.7912 3 18.3V7.5C3 6.00883 4.20883 4.8 5.7 4.8H6.6V3.9C6.6 3.40294 7.00294 3 7.5 3C7.99706 3 8.4 3.40294 8.4 3.9V4.8H15.6V3.9C15.6 3.40294 16.0029 3 16.5 3ZM4.8 12V18.3C4.8 18.7971 5.20294 19.2 5.7 19.2H18.3C18.7971 19.2 19.2 18.7971 19.2 18.3V12H4.8ZM4.8 10.2H19.2V7.5C19.2 7.00294 18.7971 6.6 18.3 6.6H17.4V7.5C17.4 7.99706 16.9971 8.4 16.5 8.4C16.0029 8.4 15.6 7.99706 15.6 7.5V6.6H8.4V7.5C8.4 7.99706 7.99706 8.4 7.5 8.4C7.00294 8.4 6.6 7.99706 6.6 7.5V6.6H5.7C5.20294 6.6 4.8 7.00294 4.8 7.5V10.2Z" fill="#DADBDC"/>
</svg>
