<svg width="24" height="24" viewBox="0 0 24 24" fill="none" xmlns="http://www.w3.org/2000/svg">
<path fill-rule="evenodd" clip-rule="evenodd" d="M12 19C15.866 19 19 15.866 19 12C19 8.13401 15.866 5 12 5C8.13401 5 5 8.13401 5 12C5 15.866 8.13401 19 12 19ZM14.4227 10.4242C14.657 10.1899 14.657 9.80995 14.4227 9.57564C14.1884 9.34132 13.8085 9.34132 13.5742 9.57564L11.9984 11.1514L10.4227 9.57564C10.1884 9.34132 9.80849 9.34132 9.57417 9.57564C9.33986 9.80995 9.33986 10.1899 9.57417 10.4242L11.1499 11.9999L9.57417 13.5756C9.33986 13.81 9.33986 14.1899 9.57417 14.4242C9.80849 14.6585 10.1884 14.6585 10.4227 14.4242L11.9984 12.8484L13.5742 14.4242C13.8085 14.6585 14.1884 14.6585 14.4227 14.4242C14.657 14.1899 14.657 13.81 14.4227 13.5756L12.847 11.9999L14.4227 10.4242Z" fill="#DADBDC"/>
</svg>
