<svg width="24" height="24" viewBox="0 0 24 24" fill="none" xmlns="http://www.w3.org/2000/svg">
<path d="M22 12C22 17.5228 17.5228 22 12 22C6.47715 22 2 17.5228 2 12C2 6.47715 6.47715 2 12 2C17.5228 2 22 6.47715 22 12Z" fill="#DADBDC"/>
<path fill-rule="evenodd" clip-rule="evenodd" d="M16.834 9.51266C17.2036 9.92308 17.1705 10.5554 16.7601 10.9249L11.2074 15.9249C10.8035 16.2886 10.1831 16.2631 9.81042 15.8676L6.72673 12.5949C6.34799 12.1929 6.36681 11.56 6.76877 11.1813C7.17073 10.8025 7.80362 10.8214 8.18236 11.2233L10.5956 13.7845L15.4218 9.4387C15.8322 9.06913 16.4645 9.10225 16.834 9.51266Z" fill="white"/>
</svg>
