<svg width="24" height="24" viewBox="0 0 24 24" fill="none" xmlns="http://www.w3.org/2000/svg">
<path fill-rule="evenodd" clip-rule="evenodd" d="M14.75 3.2V7.6H18.875L14.75 3.2ZM8 3.6C8 2.712 8.6675 2 9.5 2H15.5L20 6.8V16.4C20 16.8243 19.842 17.2313 19.5607 17.5314C19.2794 17.8314 18.8978 18 18.5 18H9.5C9.10217 18 8.72064 17.8314 8.43934 17.5314C8.15804 17.2313 8 16.8243 8 16.4V3.6ZM7 17.5V6H5.5C4.6675 6 4 6.712 4 7.6V20.4C4 20.8243 4.15804 21.2313 4.43934 21.5314C4.72064 21.8314 5.10218 22 5.5 22H14.5C14.8978 22 15.2794 21.8314 15.5607 21.5314C15.842 21.2313 16 20.8243 16 20.4V19H8.375C8.01033 19 7.66059 18.842 7.40273 18.5607C7.14487 18.2794 7 17.8978 7 17.5Z" fill="#DADBDC"/>
</svg>
