<svg width="24" height="24" viewBox="0 0 24 24" fill="none" xmlns="http://www.w3.org/2000/svg">
<path d="M5.77778 20C5.28889 20 4.87052 19.8261 4.52267 19.4782C4.17481 19.1304 4.00059 18.7117 4 18.2222V5.77778C4 5.28889 4.17422 4.87052 4.52267 4.52267C4.87111 4.17481 5.28948 4.00059 5.77778 4H18.2222C18.7111 4 19.1298 4.17422 19.4782 4.52267C19.8267 4.87111 20.0006 5.28948 20 5.77778V18.2222C20 18.7111 19.8261 19.1298 19.4782 19.4782C19.1304 19.8267 18.7117 20.0006 18.2222 20H5.77778ZM12 5.77778V11.2222C12 11.4 12.0741 11.5298 12.2222 11.6116C12.3704 11.6933 12.5185 11.6895 12.6667 11.6L13.7556 10.9333C13.9037 10.8444 14.0593 10.8 14.2222 10.8C14.3852 10.8 14.5407 10.8444 14.6889 10.9333L15.7778 11.6C15.9259 11.6889 16.0741 11.6927 16.2222 11.6116C16.3704 11.5304 16.4444 11.4006 16.4444 11.2222V5.77778H12Z" fill="#38ADC2"/>
</svg>
