<svg width="24" height="24" viewBox="0 0 24 24" fill="none" xmlns="http://www.w3.org/2000/svg">
<path fill-rule="evenodd" clip-rule="evenodd" d="M12 4.49963C12.5523 4.49963 13 4.94735 13 5.49963V13.8979L15.2929 11.605C15.6834 11.2145 16.3166 11.2145 16.7071 11.605C17.0976 11.9956 17.0976 12.6287 16.7071 13.0192L13.4142 16.3121C12.6332 17.0932 11.3668 17.0932 10.5858 16.3121L7.29289 13.0192C6.90237 12.6287 6.90237 11.9956 7.29289 11.605C7.68342 11.2145 8.31658 11.2145 8.70711 11.605L11 13.8979L11 5.49963C11 4.94735 11.4477 4.49963 12 4.49963ZM5 14.5001C5.55228 14.5001 6 14.9478 6 15.5001V17.5001H18V15.5001C18 14.9478 18.4477 14.5001 19 14.5001C19.5523 14.5001 20 14.9478 20 15.5001V17.5001C20 18.6047 19.1046 19.5001 18 19.5001H6C4.89543 19.5001 4 18.6047 4 17.5001V15.5001C4 14.9478 4.44772 14.5001 5 14.5001Z" fill="#DADBDC"/>
</svg>
