<svg width="24" height="24" viewBox="0 0 24 24" fill="none" xmlns="http://www.w3.org/2000/svg">
<path fill-rule="evenodd" clip-rule="evenodd" d="M12 5C12 5.55228 11.5523 6 11 6H6V18H18V13C18 12.4477 18.4477 12 19 12C19.5523 12 20 12.4477 20 13V18C20 19.1046 19.1046 20 18 20H6C4.89543 20 4 19.1046 4 18V6C4 4.89543 4.89543 4 6 4H11C11.5523 4 12 4.44772 12 5ZM11.6368 12.3643C11.2463 11.9738 11.2463 11.3406 11.6368 10.9501L15.7192 6.86768L14.2154 5.36383C13.9683 5.11678 14.1168 4.69367 14.464 4.65508L19.4487 4.10122C19.7141 4.07174 19.9383 4.29598 19.9088 4.56136L19.355 9.54605C19.3164 9.89329 18.8933 10.0417 18.6462 9.79466L17.1335 8.28189L13.051 12.3643C12.6605 12.7549 12.0273 12.7549 11.6368 12.3643Z" fill="#DADBDC"/>
</svg>
