<svg width="24" height="24" viewBox="0 0 24 24" fill="none" xmlns="http://www.w3.org/2000/svg">
<path fill-rule="evenodd" clip-rule="evenodd" d="M20 7C20 7.55229 19.5523 8 19 8L5 8C4.44771 8 4 7.55228 4 7C4 6.44772 4.44771 6 5 6L19 6C19.5523 6 20 6.44772 20 7Z" fill="#DADBDC"/>
<path fill-rule="evenodd" clip-rule="evenodd" d="M18 12C18 12.5523 17.5523 13 17 13L7 13C6.44771 13 6 12.5523 6 12C6 11.4477 6.44771 11 7 11L17 11C17.5523 11 18 11.4477 18 12Z" fill="#DADBDC"/>
<path fill-rule="evenodd" clip-rule="evenodd" d="M16 17C16 17.5523 15.5523 18 15 18H9C8.44772 18 8 17.5523 8 17C8 16.4477 8.44772 16 9 16H15C15.5523 16 16 16.4477 16 17Z" fill="#DADBDC"/>
</svg>
