<svg width="24" height="24" viewBox="0 0 24 24" fill="none" xmlns="http://www.w3.org/2000/svg">
<path fill-rule="evenodd" clip-rule="evenodd" d="M12.3513 4.64498C12.1566 4.45292 11.8437 4.45292 11.649 4.64498L4.64987 11.5494C4.33158 11.8633 4.55391 12.4053 5.001 12.4053H6.8642V18.9991C6.8642 19.2752 7.08805 19.4991 7.3642 19.4991H9.95956C10.2357 19.4991 10.4596 19.2752 10.4596 18.9991V15.5007C10.4596 15.2246 10.6834 15.0007 10.9596 15.0007H13.0413C13.3174 15.0007 13.5413 15.2246 13.5413 15.5007V18.9991C13.5413 19.2752 13.7652 19.4991 14.0413 19.4991H16.6367C16.9128 19.4991 17.1367 19.2752 17.1367 18.9991V12.4053H18.9993C19.4464 12.4053 19.6687 11.8633 19.3504 11.5494L12.3513 4.64498Z" fill="#DADBDC"/>
</svg>
