<svg width="24" height="24" viewBox="0 0 24 24" fill="none" xmlns="http://www.w3.org/2000/svg">
<path d="M12.0005 3C16.9711 3 21.0005 7.02944 21.0005 12C21.0005 16.9706 16.9711 21 12.0005 21C7.02993 21 3.00049 16.9706 3.00049 12C3.00049 7.02944 7.02993 3 12.0005 3ZM12.0005 18.3088C15.4847 18.3088 18.3092 15.4842 18.3092 12C18.3092 8.51577 15.4847 5.69124 12.0005 5.69124C8.51626 5.69124 5.69173 8.51577 5.69173 12C5.69173 15.4842 8.51626 18.3088 12.0005 18.3088Z" fill="url(#paint0_angular_1143_19622)"/>
<path d="M19.6503 10.5578C20.3959 10.5578 21.0003 11.1622 21.0003 11.9078C21.0003 12.6534 20.3959 13.2578 19.6503 13.2578C18.9047 13.2578 18.3003 12.6534 18.3003 11.9078C18.3003 11.1622 18.9047 10.5578 19.6503 10.5578Z" fill="#38ADC2"/>
<defs>
<radialGradient id="paint0_angular_1143_19622" cx="0" cy="0" r="1" gradientUnits="userSpaceOnUse" gradientTransform="translate(12.0005 12) scale(9)">
<stop stop-color="#38ADC2"/>
<stop offset="0.175675" stop-color="#38ADC2"/>
<stop offset="1" stop-color="white" stop-opacity="0"/>
</radialGradient>
</defs>
</svg>
