<svg width="24" height="24" viewBox="0 0 24 24" fill="none" xmlns="http://www.w3.org/2000/svg">
<path d="M11.9995 21C7.02895 21 2.99951 16.9706 2.99951 12C2.99951 7.02944 7.02895 3 11.9995 3C16.9701 3 20.9995 7.02944 20.9995 12C20.9995 16.9706 16.9701 21 11.9995 21ZM11.9995 5.69124C8.51528 5.69124 5.69075 8.51577 5.69075 12C5.69075 15.4842 8.51528 18.3088 11.9995 18.3088C15.4837 18.3088 18.3083 15.4842 18.3083 12C18.3083 8.51577 15.4837 5.69124 11.9995 5.69124Z" fill="url(#paint0_angular_1143_19620)"/>
<path d="M4.34969 13.4422C3.6041 13.4422 2.99969 12.8378 2.99969 12.0922C2.99969 11.3466 3.6041 10.7422 4.34969 10.7422C5.09527 10.7422 5.69969 11.3466 5.69969 12.0922C5.69969 12.8378 5.09527 13.4422 4.34969 13.4422Z" fill="#38ADC2"/>
<defs>
<radialGradient id="paint0_angular_1143_19620" cx="0" cy="0" r="1" gradientUnits="userSpaceOnUse" gradientTransform="translate(11.9995 12) rotate(-180) scale(9)">
<stop stop-color="#38ADC2"/>
<stop offset="0.175675" stop-color="#38ADC2"/>
<stop offset="1" stop-color="white" stop-opacity="0"/>
</radialGradient>
</defs>
</svg>
