<svg width="24" height="24" viewBox="0 0 24 24" fill="none" xmlns="http://www.w3.org/2000/svg">
<path d="M3.00049 11.9997C3.00049 7.02913 7.02993 2.99969 12.0005 2.99969C16.9711 2.9997 21.0005 7.02913 21.0005 11.9997C21.0005 16.9703 16.9711 20.9997 12.0005 20.9997C7.02992 20.9997 3.00049 16.9703 3.00049 11.9997ZM18.3092 11.9997C18.3092 8.51546 15.4847 5.69093 12.0005 5.69093C8.51626 5.69093 5.69173 8.51546 5.69173 11.9997C5.69173 15.4839 8.51626 18.3085 12.0005 18.3085C15.4847 18.3085 18.3092 15.4839 18.3092 11.9997Z" fill="url(#paint0_angular_1143_19618)"/>
<path d="M10.5582 4.34979C10.5582 3.60421 11.1626 2.99979 11.9082 2.99979C12.6537 2.99979 13.2582 3.60421 13.2582 4.34979C13.2582 5.09538 12.6537 5.69979 11.9082 5.69979C11.1626 5.69979 10.5582 5.09538 10.5582 4.34979Z" fill="#38ADC2"/>
<defs>
<radialGradient id="paint0_angular_1143_19618" cx="0" cy="0" r="1" gradientUnits="userSpaceOnUse" gradientTransform="translate(12.0005 11.9997) rotate(-90) scale(9)">
<stop stop-color="#38ADC2"/>
<stop offset="0.175675" stop-color="#38ADC2"/>
<stop offset="1" stop-color="white" stop-opacity="0"/>
</radialGradient>
</defs>
</svg>
