<svg width="24" height="24" viewBox="0 0 24 24" fill="none" xmlns="http://www.w3.org/2000/svg">
<path fill-rule="evenodd" clip-rule="evenodd" d="M19.6154 4H4.38462C4.01739 4 3.66521 4.14659 3.40554 4.40751C3.14588 4.66844 3 5.02233 3 5.39134V19.3047C3.00006 19.4233 3.03028 19.5399 3.08779 19.6434C3.1453 19.7469 3.22819 19.834 3.32859 19.8963C3.42899 19.9586 3.54357 19.994 3.66145 19.9993C3.77933 20.0046 3.89659 19.9795 4.00212 19.9265L6.46154 18.6908L8.92096 19.9265C9.01714 19.9748 9.12322 20 9.23077 20C9.33832 20 9.4444 19.9748 9.54058 19.9265L12 18.6908L14.4594 19.9265C14.5556 19.9748 14.6617 20 14.7692 20C14.8768 20 14.9829 19.9748 15.079 19.9265L17.5385 18.6908L19.9979 19.9265C20.1034 19.9795 20.2207 20.0046 20.3386 19.9993C20.4564 19.994 20.571 19.9586 20.6714 19.8963C20.7718 19.834 20.8547 19.7469 20.9122 19.6434C20.9697 19.5399 20.9999 19.4233 21 19.3047V5.39134C21 5.02233 20.8541 4.66844 20.5945 4.40751C20.3348 4.14659 19.9826 4 19.6154 4ZM6 9.5C6 8.94772 6.44772 8.5 7 8.5H10C10.5523 8.5 11 8.94772 11 9.5V13.5C11 14.0523 10.5523 14.5 10 14.5H7C6.44772 14.5 6 14.0523 6 13.5V9.5ZM13.5 9.25C13.0858 9.25 12.75 9.58579 12.75 10C12.75 10.4142 13.0858 10.75 13.5 10.75H17.5C17.9142 10.75 18.25 10.4142 18.25 10C18.25 9.58579 17.9142 9.25 17.5 9.25H13.5ZM13.5 12.25C13.0858 12.25 12.75 12.5858 12.75 13C12.75 13.4142 13.0858 13.75 13.5 13.75H17.5C17.9142 13.75 18.25 13.4142 18.25 13C18.25 12.5858 17.9142 12.25 17.5 12.25H13.5Z" fill="#38ADC2"/>
</svg>
