<svg width="24" height="24" viewBox="0 0 24 24" fill="none" xmlns="http://www.w3.org/2000/svg">
<path d="M13 10.5C12.4477 10.5 12 10.9477 12 11.5C12 12.0523 12.4477 12.5 13 12.5H16C16.5523 12.5 17 12.0523 17 11.5C17 10.9477 16.5523 10.5 16 10.5H13Z" fill="#979899"/>
<path fill-rule="evenodd" clip-rule="evenodd" d="M8 2C6.89543 2 6 2.89543 6 4V7C4.34315 7 3 8.34315 3 10V16C3 17.6569 4.34315 19 6 19V20C6 21.1046 6.89543 22 8 22H16C17.1046 22 18 21.1046 18 20V19C19.6569 19 21 17.6569 21 16V10C21 8.34315 19.6569 7 18 7V4C18 2.89543 17.1046 2 16 2H8ZM16 7V4H8V7H16ZM6 9C5.44772 9 5 9.44772 5 10V16C5 16.5523 5.44772 17 6 17C6 15.8954 6.89543 15 8 15H16C17.1046 15 18 15.8954 18 17C18.5523 17 19 16.5523 19 16V10C19 9.44772 18.5523 9 18 9H6ZM8 17H16V20H8V17Z" fill="#979899"/>
</svg>
