<svg width="24" height="24" viewBox="0 0 24 24" fill="none" xmlns="http://www.w3.org/2000/svg">
<path d="M18.0004 6.70883V5.5C18.0004 4.94772 18.4481 4.5 19.0004 4.5C19.5527 4.5 20.0004 4.94772 20.0004 5.5V9C20.0004 9.55228 19.5527 10 19.0004 10H15.5004C14.9481 10 14.5004 9.55228 14.5004 9C14.5004 8.44772 14.9481 8 15.5004 8H16.4726C15.3733 6.77174 13.7763 6 12.0002 6C8.58622 6 6.0002 8.28149 6.0002 11.5C6.0002 12.0523 5.55248 12.5 5.0002 12.5C4.44791 12.5 4.0002 12.0523 4.0002 11.5C4.0002 6.98653 7.68219 4 12.0002 4C14.3907 4 16.5352 5.04849 18.0004 6.70883Z" fill="#979899"/>
<path d="M7.52776 16C8.62705 17.2283 10.224 18 12.0002 18C15.4142 18 18.0002 15.7185 18.0002 12.5C18.0002 11.9477 18.4479 11.5 19.0002 11.5C19.5525 11.5 20.0002 11.9477 20.0002 12.5C20.0002 17.0135 16.3182 20 12.0002 20C9.60972 20 7.46524 18.9515 6 17.2912V18.5C6 19.0523 5.55228 19.5 5 19.5C4.44772 19.5 4 19.0523 4 18.5V15C4 14.4477 4.44772 14 5 14H8.5C9.05229 14 9.5 14.4477 9.5 15C9.5 15.5523 9.05229 16 8.5 16H7.52776Z" fill="#979899"/>
</svg>
