<svg width="24" height="24" viewBox="0 0 24 24" fill="none" xmlns="http://www.w3.org/2000/svg">
<path d="M17 3C17 2.44772 17.4477 2 18 2H21C22.1046 2 23 2.89543 23 4V7C23 7.55228 22.5523 8 22 8C21.4477 8 21 7.55228 21 7V4H18C17.4477 4 17 3.55228 17 3Z" fill="#979899"/>
<path d="M8.5 10C7.94772 10 7.5 10.4477 7.5 11V12.5C7.5 13.0523 7.94772 13.5 8.5 13.5H10C10.5523 13.5 11 13.0523 11 12.5V11C11 10.4477 10.5523 10 10 10H8.5Z" fill="#979899"/>
<path d="M12.5 11C12.5 10.7239 12.7239 10.5 13 10.5H16C16.2761 10.5 16.5 10.7239 16.5 11C16.5 11.2761 16.2761 11.5 16 11.5H13C12.7239 11.5 12.5 11.2761 12.5 11Z" fill="#979899"/>
<path d="M13 12.5C12.7239 12.5 12.5 12.7239 12.5 13C12.5 13.2761 12.7239 13.5 13 13.5H16C16.2761 13.5 16.5 13.2761 16.5 13C16.5 12.7239 16.2761 12.5 16 12.5H13Z" fill="#979899"/>
<path fill-rule="evenodd" clip-rule="evenodd" d="M17.75 6H6.25C5.00736 6 4 7.00736 4 8.25V15.75C4 16.9926 5.00736 18 6.25 18H17.75C18.9926 18 20 16.9926 20 15.75V8.25C20 7.00736 18.9926 6 17.75 6ZM6 8.25C6 8.11193 6.11193 8 6.25 8H17.75C17.8881 8 18 8.11193 18 8.25V15.75C18 15.8881 17.8881 16 17.75 16H6.25C6.11193 16 6 15.8881 6 15.75V8.25Z" fill="#979899"/>
<path d="M23 17C23 16.4477 22.5523 16 22 16C21.4477 16 21 16.4477 21 17V20H18C17.4477 20 17 20.4477 17 21C17 21.5523 17.4477 22 18 22H21C22.1046 22 23 21.1046 23 20V17Z" fill="#979899"/>
<path d="M7 21C7 21.5523 6.55228 22 6 22H3C1.89543 22 1 21.1046 1 20V17C1 16.4477 1.44772 16 2 16C2.55229 16 3 16.4477 3 17L3 20H6C6.55228 20 7 20.4477 7 21Z" fill="#979899"/>
<path d="M1 7C1 7.55228 1.44772 8 2 8C2.55228 8 3 7.55228 3 7L3 4L6 4C6.55229 4 7 3.55229 7 3C7 2.44772 6.55229 2 6 2H3C1.89543 2 1 2.89543 1 4V7Z" fill="#979899"/>
</svg>
