<svg width="24" height="24" viewBox="0 0 24 24" fill="none" xmlns="http://www.w3.org/2000/svg">
<path fill-rule="evenodd" clip-rule="evenodd" d="M10.8672 5.61621C8.10576 5.61621 5.86719 7.85479 5.86719 10.6162C5.86719 13.3776 8.10576 15.6162 10.8672 15.6162C13.6286 15.6162 15.8672 13.3776 15.8672 10.6162C15.8672 7.85479 13.6286 5.61621 10.8672 5.61621ZM3.86719 10.6162C3.86719 6.75022 7.00119 3.61621 10.8672 3.61621C14.7332 3.61621 17.8672 6.75022 17.8672 10.6162C17.8672 14.4822 14.7332 17.6162 10.8672 17.6162C7.00119 17.6162 3.86719 14.4822 3.86719 10.6162Z" fill="#DADBDC"/>
<path fill-rule="evenodd" clip-rule="evenodd" d="M14.1835 14.434C14.574 14.0435 15.2072 14.0435 15.5977 14.434L19.8404 18.6766C20.2309 19.0672 20.2309 19.7003 19.8404 20.0909C19.4498 20.4814 18.8167 20.4814 18.4262 20.0909L14.1835 15.8482C13.793 15.4577 13.793 14.8245 14.1835 14.434Z" fill="#DADBDC"/>
</svg>
