<svg width="24" height="24" viewBox="0 0 24 24" fill="none" xmlns="http://www.w3.org/2000/svg">
<path fill-rule="evenodd" clip-rule="evenodd" d="M9.66577 4.92433C10.6257 3.02671 13.3747 3.02674 14.3346 4.92433L15.6996 7.62278L18.7619 8.05692C20.8731 8.35622 21.7882 10.9392 20.2019 12.4478L18.0009 14.541L18.5194 17.4903C18.8974 19.6409 16.6092 21.1635 14.7448 20.2072L12.0002 18.7994L9.25558 20.2072C7.39109 21.1635 5.10293 19.6408 5.48098 17.4903L5.99946 14.541L3.79843 12.4478C2.21207 10.9392 3.12729 8.35622 5.23845 8.05692L8.30075 7.62278L9.66577 4.92433ZM12.5499 5.82711C12.33 5.39247 11.6703 5.39247 11.4504 5.82711L9.61447 9.45654L5.51918 10.0371C4.99231 10.1118 4.85414 10.6918 5.1767 10.9985L8.15496 13.8309L7.45077 17.8366C7.37819 18.2495 7.84774 18.6816 8.3428 18.4276L12.0002 16.5517L15.6575 18.4276C16.1526 18.6816 16.6221 18.2495 16.5496 17.8366L15.8454 13.8309L18.8236 10.9985C19.1462 10.6918 19.008 10.1118 18.4812 10.0371L14.3859 9.45654L12.5499 5.82711Z" fill="#DADBDC"/>
</svg>
