<svg width="24" height="24" viewBox="0 0 24 24" fill="none" xmlns="http://www.w3.org/2000/svg">
<path fill-rule="evenodd" clip-rule="evenodd" d="M6.6665 9.33334V6.66667H9.33317V9.33334H6.6665ZM4.6665 6.00001C4.6665 5.26363 5.26346 4.66667 5.99984 4.66667H9.99984C10.7362 4.66667 11.3332 5.26363 11.3332 6.00001V10C11.3332 10.7364 10.7362 11.3333 9.99984 11.3333H5.99984C5.26346 11.3333 4.6665 10.7364 4.6665 10V6.00001ZM6.6665 17.3333V14.6667H9.33317V17.3333H6.6665ZM4.6665 14C4.6665 13.2636 5.26346 12.6667 5.99984 12.6667H9.99984C10.7362 12.6667 11.3332 13.2636 11.3332 14V18C11.3332 18.7364 10.7362 19.3333 9.99984 19.3333H5.99984C5.26346 19.3333 4.6665 18.7364 4.6665 18V14ZM14.6665 6.66667V9.33334H17.3332V6.66667H14.6665ZM13.9998 4.66667C13.2635 4.66667 12.6665 5.26363 12.6665 6.00001V10C12.6665 10.7364 13.2635 11.3333 13.9998 11.3333H17.9998C18.7362 11.3333 19.3332 10.7364 19.3332 10V6.00001C19.3332 5.26363 18.7362 4.66667 17.9998 4.66667H13.9998ZM14.6665 17.3333V14.6667H17.3332V17.3333H14.6665ZM12.6665 14C12.6665 13.2636 13.2635 12.6667 13.9998 12.6667H17.9998C18.7362 12.6667 19.3332 13.2636 19.3332 14V18C19.3332 18.7364 18.7362 19.3333 17.9998 19.3333H13.9998C13.2635 19.3333 12.6665 18.7364 12.6665 18V14Z" fill="#DADBDC"/>
</svg>
