<svg width="24" height="24" viewBox="0 0 24 24" fill="none" xmlns="http://www.w3.org/2000/svg">
<path fill-rule="evenodd" clip-rule="evenodd" d="M16.5 8H7.5V19H16.5V8ZM7.5 6C6.39543 6 5.5 6.89543 5.5 8V19C5.5 20.1046 6.39543 21 7.5 21H16.5C17.6046 21 18.5 20.1046 18.5 19V8C18.5 6.89543 17.6046 6 16.5 6H7.5Z" fill="#DADBDC"/>
<path fill-rule="evenodd" clip-rule="evenodd" d="M3.5 7C3.5 6.44772 3.94772 6 4.5 6H19.5C20.0523 6 20.5 6.44772 20.5 7C20.5 7.55228 20.0523 8 19.5 8H4.5C3.94772 8 3.5 7.55228 3.5 7Z" fill="#DADBDC"/>
<path fill-rule="evenodd" clip-rule="evenodd" d="M7.5 5C7.5 3.89543 8.39543 3 9.5 3H14.5C15.6046 3 16.5 3.89543 16.5 5V7C16.5 7.55228 16.0523 8 15.5 8C14.9477 8 14.5 7.55228 14.5 7V5H9.5V7C9.5 7.55228 9.05228 8 8.5 8C7.94772 8 7.5 7.55228 7.5 7V5Z" fill="#DADBDC"/>
<path fill-rule="evenodd" clip-rule="evenodd" d="M10 10C10.5523 10 11 10.4477 11 11V16C11 16.5523 10.5523 17 10 17C9.44772 17 9 16.5523 9 16V11C9 10.4477 9.44772 10 10 10Z" fill="#DADBDC"/>
<path fill-rule="evenodd" clip-rule="evenodd" d="M14 10C14.5523 10 15 10.4477 15 11V16C15 16.5523 14.5523 17 14 17C13.4477 17 13 16.5523 13 16V11C13 10.4477 13.4477 10 14 10Z" fill="#DADBDC"/>
</svg>
