<svg width="24" height="24" viewBox="0 0 24 24" fill="none" xmlns="http://www.w3.org/2000/svg">
<path fill-rule="evenodd" clip-rule="evenodd" d="M10.7071 5.29289C11.0976 5.68342 11.0976 6.31658 10.7071 6.70711L5.41421 12L10.7071 17.2929C11.0976 17.6834 11.0976 18.3166 10.7071 18.7071C10.3166 19.0976 9.68342 19.0976 9.29289 18.7071L3.29289 12.7071C2.90237 12.3166 2.90237 11.6834 3.29289 11.2929L9.29289 5.29289C9.68342 4.90237 10.3166 4.90237 10.7071 5.29289Z" fill="#DADBDC"/>
<path fill-rule="evenodd" clip-rule="evenodd" d="M18.7071 5.29289C19.0976 5.68342 19.0976 6.31658 18.7071 6.70711L13.4142 12L18.7071 17.2929C19.0976 17.6834 19.0976 18.3166 18.7071 18.7071C18.3166 19.0976 17.6834 19.0976 17.2929 18.7071L11.2929 12.7071C10.9024 12.3166 10.9024 11.6834 11.2929 11.2929L17.2929 5.29289C17.6834 4.90237 18.3166 4.90237 18.7071 5.29289Z" fill="#DADBDC"/>
</svg>
