<svg width="24" height="24" viewBox="0 0 24 24" fill="none" xmlns="http://www.w3.org/2000/svg">
<path fill-rule="evenodd" clip-rule="evenodd" d="M5.29289 18.7071C4.90237 18.3166 4.90237 17.6834 5.29289 17.2929L10.5858 12L5.29289 6.70711C4.90237 6.31658 4.90237 5.68342 5.29289 5.29289C5.68342 4.90237 6.31658 4.90237 6.70711 5.29289L12.7071 11.2929C12.8946 11.4804 13 11.7348 13 12C13 12.2652 12.8946 12.5196 12.7071 12.7071L6.70711 18.7071C6.31658 19.0976 5.68342 19.0976 5.29289 18.7071Z" fill="#DADBDC"/>
<path fill-rule="evenodd" clip-rule="evenodd" d="M13.2929 18.7071C12.9024 18.3166 12.9024 17.6834 13.2929 17.2929L18.5858 12L13.2929 6.70711C12.9024 6.31658 12.9024 5.68342 13.2929 5.29289C13.6834 4.90237 14.3166 4.90237 14.7071 5.29289L20.7071 11.2929C20.8946 11.4804 21 11.7348 21 12C21 12.2652 20.8946 12.5196 20.7071 12.7071L14.7071 18.7071C14.3166 19.0976 13.6834 19.0976 13.2929 18.7071Z" fill="#DADBDC"/>
</svg>
