<svg width="24" height="24" viewBox="0 0 24 24" fill="none" xmlns="http://www.w3.org/2000/svg">
<path fill-rule="evenodd" clip-rule="evenodd" d="M12 19.9062C11.4477 19.9062 11 19.4585 11 18.9062L11 10.508L8.70711 12.8009C8.31658 13.1914 7.68342 13.1914 7.29289 12.8009C6.90237 12.4103 6.90237 11.7772 7.29289 11.3866L10.5858 8.09375C11.3668 7.3127 12.6332 7.3127 13.4142 8.09375L16.7071 11.3866C17.0976 11.7772 17.0976 12.4103 16.7071 12.8009C16.3166 13.1914 15.6834 13.1914 15.2929 12.8009L13 10.508L13 18.9062C13 19.4585 12.5523 19.9062 12 19.9062ZM21 5.09375C21 5.64603 20.5523 6.09375 20 6.09375L4 6.09375C3.44772 6.09375 3 5.64603 3 5.09375V5.09375C3 4.54146 3.44772 4.09375 4 4.09375L20 4.09375C20.5523 4.09375 21 4.54147 21 5.09375V5.09375Z" fill="#DADBDC"/>
</svg>
