<svg width="16" height="16" viewBox="0 0 16 16" fill="none" xmlns="http://www.w3.org/2000/svg">
<path fill-rule="evenodd" clip-rule="evenodd" d="M8.00016 3.33334C8.36835 3.33334 8.66683 3.63182 8.66683 4.00001V12C8.66683 12.3682 8.36835 12.6667 8.00016 12.6667C7.63197 12.6667 7.3335 12.3682 7.3335 12V4.00001C7.3335 3.63182 7.63197 3.33334 8.00016 3.33334Z" fill="#979899"/>
<path fill-rule="evenodd" clip-rule="evenodd" d="M12.6668 8.00001C12.6668 8.3682 12.3684 8.66668 12.0002 8.66668L4.00016 8.66668C3.63197 8.66668 3.3335 8.3682 3.3335 8.00001C3.3335 7.63182 3.63197 7.33334 4.00016 7.33334L12.0002 7.33334C12.3684 7.33334 12.6668 7.63182 12.6668 8.00001Z" fill="#979899"/>
</svg>
