<svg width="16" height="16" viewBox="0 0 16 16" fill="none" xmlns="http://www.w3.org/2000/svg">
<path fill-rule="evenodd" clip-rule="evenodd" d="M2.6665 4C2.6665 2.89543 3.56193 2 4.6665 2H11.3332C12.4377 2 13.3332 2.89543 13.3332 4V12C13.3332 13.1046 12.4377 14 11.3332 14H4.6665C3.56193 14 2.6665 13.1046 2.6665 12V4ZM4.6665 3.33333C4.29831 3.33333 3.99984 3.63181 3.99984 4V12C3.99984 12.3682 4.29831 12.6667 4.6665 12.6667H11.3332C11.7014 12.6667 11.9998 12.3682 11.9998 12V4C11.9998 3.63181 11.7014 3.33333 11.3332 3.33333H4.6665Z" fill="#979899"/>
<path fill-rule="evenodd" clip-rule="evenodd" d="M4.99984 6C4.99984 5.74227 5.20877 5.53334 5.4665 5.53334H10.5332C10.7909 5.53334 10.9998 5.74227 10.9998 6C10.9998 6.25773 10.7909 6.46667 10.5332 6.46667H5.4665C5.20877 6.46667 4.99984 6.25773 4.99984 6Z" fill="#979899"/>
<path d="M4.99984 8.8C4.99984 8.54227 5.20877 8.33333 5.4665 8.33333H5.8665C6.12424 8.33333 6.33317 8.54227 6.33317 8.8C6.33317 9.05773 6.12424 9.26667 5.8665 9.26667H5.4665C5.20877 9.26667 4.99984 9.05773 4.99984 8.8Z" fill="#979899"/>
<path d="M7.33317 8.8C7.33317 8.54227 7.5421 8.33333 7.79984 8.33333H8.19984C8.45757 8.33333 8.6665 8.54227 8.6665 8.8C8.6665 9.05773 8.45757 9.26667 8.19984 9.26667H7.79984C7.5421 9.26667 7.33317 9.05773 7.33317 8.8Z" fill="#979899"/>
<path d="M9.6665 8.8C9.6665 8.54227 9.87544 8.33333 10.1332 8.33333H10.5332C10.7909 8.33333 10.9998 8.54227 10.9998 8.8C10.9998 9.05773 10.7909 9.26667 10.5332 9.26667H10.1332C9.87544 9.26667 9.6665 9.05773 9.6665 8.8Z" fill="#979899"/>
<path d="M4.99984 11.0667C4.99984 10.8089 5.20877 10.6 5.4665 10.6H5.8665C6.12424 10.6 6.33317 10.8089 6.33317 11.0667C6.33317 11.3244 6.12424 11.5333 5.8665 11.5333H5.4665C5.20877 11.5333 4.99984 11.3244 4.99984 11.0667Z" fill="#979899"/>
<path d="M7.33317 11.0667C7.33317 10.8089 7.5421 10.6 7.79984 10.6H8.19984C8.45757 10.6 8.6665 10.8089 8.6665 11.0667C8.6665 11.3244 8.45757 11.5333 8.19984 11.5333H7.79984C7.5421 11.5333 7.33317 11.3244 7.33317 11.0667Z" fill="#979899"/>
<path d="M9.6665 11.0667C9.6665 10.8089 9.87544 10.6 10.1332 10.6H10.5332C10.7909 10.6 10.9998 10.8089 10.9998 11.0667C10.9998 11.3244 10.7909 11.5333 10.5332 11.5333H10.1332C9.87544 11.5333 9.6665 11.3244 9.6665 11.0667Z" fill="#979899"/>
</svg>
