<svg width="16" height="16" viewBox="0 0 16 16" fill="none" xmlns="http://www.w3.org/2000/svg">
<path fill-rule="evenodd" clip-rule="evenodd" d="M11 2C11.3314 2 11.6 2.26863 11.6 2.6V3.2H12.2C13.1941 3.2 14 4.00589 14 5V12.2C14 13.1941 13.1941 14 12.2 14H3.8C2.80589 14 2 13.1941 2 12.2V5C2 4.00589 2.80589 3.2 3.8 3.2H4.4V2.6C4.4 2.26863 4.66863 2 5 2C5.33137 2 5.6 2.26863 5.6 2.6V3.2H10.4V2.6C10.4 2.26863 10.6686 2 11 2ZM3.2 8V12.2C3.2 12.5314 3.46863 12.8 3.8 12.8H12.2C12.5314 12.8 12.8 12.5314 12.8 12.2V8H3.2ZM3.2 6.8H12.8V5C12.8 4.66863 12.5314 4.4 12.2 4.4H11.6V5C11.6 5.33137 11.3314 5.6 11 5.6C10.6686 5.6 10.4 5.33137 10.4 5V4.4H5.6V5C5.6 5.33137 5.33137 5.6 5 5.6C4.66863 5.6 4.4 5.33137 4.4 5V4.4H3.8C3.46863 4.4 3.2 4.66863 3.2 5V6.8Z" fill="#979899"/>
</svg>
