<svg width="16" height="16" viewBox="0 0 16 16" fill="none" xmlns="http://www.w3.org/2000/svg">
<path fill-rule="evenodd" clip-rule="evenodd" d="M8.00016 12.6667C10.5775 12.6667 12.6668 10.5773 12.6668 8.00001C12.6668 5.42268 10.5775 3.33334 8.00016 3.33334C5.42283 3.33334 3.3335 5.42268 3.3335 8.00001C3.3335 10.5773 5.42283 12.6667 8.00016 12.6667ZM9.6153 6.94945C9.77151 6.79324 9.77151 6.53998 9.6153 6.38377C9.45909 6.22756 9.20582 6.22756 9.04961 6.38377L7.99912 7.43426L6.94863 6.38377C6.79242 6.22756 6.53916 6.22756 6.38295 6.38377C6.22674 6.53998 6.22674 6.79324 6.38295 6.94945L7.43344 7.99994L6.38294 9.05044C6.22674 9.20664 6.22674 9.45991 6.38294 9.61612C6.53915 9.77233 6.79242 9.77233 6.94863 9.61612L7.99912 8.56563L9.04961 9.61612C9.20582 9.77233 9.45909 9.77233 9.6153 9.61612C9.77151 9.45991 9.77151 9.20664 9.6153 9.05044L8.56481 7.99994L9.6153 6.94945Z" fill="#979899"/>
</svg>
