<svg width="16" height="16" viewBox="0 0 16 16" fill="none" xmlns="http://www.w3.org/2000/svg">
<path d="M14 8C14 11.3137 11.3137 14 8 14C4.68629 14 2 11.3137 2 8C2 4.68629 4.68629 2 8 2C11.3137 2 14 4.68629 14 8Z" fill="#DADBDC"/>
<path fill-rule="evenodd" clip-rule="evenodd" d="M10.9003 6.50752C11.1221 6.75377 11.1022 7.13315 10.856 7.35489L7.52436 10.3549C7.28204 10.5731 6.9098 10.5578 6.68618 10.3205L4.83597 8.35684C4.60872 8.11567 4.62002 7.73593 4.86119 7.50869C5.10237 7.28144 5.4821 7.29274 5.70935 7.53391L7.15729 9.07062L10.053 6.46314C10.2992 6.2414 10.6786 6.26127 10.9003 6.50752Z" fill="white"/>
</svg>
