<svg width="16" height="16" viewBox="0 0 16 16" fill="none" xmlns="http://www.w3.org/2000/svg">
<path fill-rule="evenodd" clip-rule="evenodd" d="M7.99984 2.72916C8.36803 2.72916 8.6665 3.02763 8.6665 3.39582V8.99468L10.1951 7.46609C10.4554 7.20574 10.8776 7.20574 11.1379 7.46609C11.3983 7.72643 11.3983 8.14855 11.1379 8.40889L8.94265 10.6042C8.42195 11.1249 7.57773 11.1249 7.05703 10.6042L4.86177 8.40889C4.60142 8.14854 4.60142 7.72643 4.86177 7.46609C5.12212 7.20574 5.54423 7.20574 5.80458 7.46609L7.33317 8.99468L7.33317 3.39582C7.33317 3.02763 7.63165 2.72916 7.99984 2.72916ZM3.33317 9.93749C3.70136 9.93749 3.99984 10.236 3.99984 10.6042V11.9375H11.9998V10.6042C11.9998 10.236 12.2983 9.93749 12.6665 9.93749C13.0347 9.93749 13.3332 10.236 13.3332 10.6042V11.9375C13.3332 12.6739 12.7362 13.2708 11.9998 13.2708H3.99984C3.26346 13.2708 2.6665 12.6739 2.6665 11.9375V10.6042C2.6665 10.236 2.96498 9.93749 3.33317 9.93749Z" fill="#979899"/>
</svg>
