<svg width="16" height="16" viewBox="0 0 16 16" fill="none" xmlns="http://www.w3.org/2000/svg">
<path fill-rule="evenodd" clip-rule="evenodd" d="M13.3332 4.66667C13.3332 5.03486 13.0347 5.33333 12.6665 5.33333L3.33317 5.33333C2.96498 5.33333 2.6665 5.03486 2.6665 4.66667C2.6665 4.29848 2.96498 4 3.33317 4L12.6665 4C13.0347 4 13.3332 4.29848 13.3332 4.66667Z" fill="#979899"/>
<path fill-rule="evenodd" clip-rule="evenodd" d="M11.9998 8C11.9998 8.36819 11.7014 8.66667 11.3332 8.66667L4.6665 8.66667C4.29831 8.66667 3.99984 8.36819 3.99984 8C3.99984 7.63181 4.29831 7.33333 4.6665 7.33333L11.3332 7.33333C11.7014 7.33333 11.9998 7.63181 11.9998 8Z" fill="#979899"/>
<path fill-rule="evenodd" clip-rule="evenodd" d="M10.6665 11.3333C10.6665 11.7015 10.368 12 9.99984 12H5.99984C5.63165 12 5.33317 11.7015 5.33317 11.3333C5.33317 10.9651 5.63165 10.6667 5.99984 10.6667H9.99984C10.368 10.6667 10.6665 10.9651 10.6665 11.3333Z" fill="#979899"/>
</svg>
