<svg width="16" height="16" viewBox="0 0 16 16" fill="none" xmlns="http://www.w3.org/2000/svg">
<path d="M7.723 4.16598C7.82548 3.91959 8.17452 3.91959 8.277 4.16598L8.98764 5.87458C9.03085 5.97845 9.12853 6.04942 9.24067 6.05841L11.0852 6.20629C11.3512 6.22762 11.4591 6.55957 11.2564 6.73317L9.85106 7.93702C9.76563 8.01021 9.72832 8.12504 9.75442 8.23447L10.1838 10.0345C10.2457 10.294 9.96332 10.4992 9.73559 10.3601L8.15638 9.39551C8.06037 9.33687 7.93963 9.33687 7.84362 9.39551L6.26441 10.3601C6.03668 10.4992 5.7543 10.294 5.81622 10.0345L6.24558 8.23447C6.27168 8.12504 6.23437 8.01021 6.14894 7.93702L4.74356 6.73317C4.5409 6.55957 4.64876 6.22762 4.91475 6.20629L6.75933 6.05841C6.87147 6.04942 6.96915 5.97845 7.01236 5.87458L7.723 4.16598Z" fill="#38ADC2"/>
</svg>
