<svg width="16" height="16" viewBox="0 0 16 16" fill="none" xmlns="http://www.w3.org/2000/svg">
<path fill-rule="evenodd" clip-rule="evenodd" d="M7.24479 3.74416C5.40384 3.74416 3.91146 5.23655 3.91146 7.07749C3.91146 8.91844 5.40384 10.4108 7.24479 10.4108C9.08574 10.4108 10.5781 8.91844 10.5781 7.07749C10.5781 5.23655 9.08574 3.74416 7.24479 3.74416ZM2.57812 7.07749C2.57812 4.50017 4.66746 2.41083 7.24479 2.41083C9.82212 2.41083 11.9115 4.50017 11.9115 7.07749C11.9115 9.65482 9.82212 11.7442 7.24479 11.7442C4.66746 11.7442 2.57812 9.65482 2.57812 7.07749Z" fill="#979899"/>
<path fill-rule="evenodd" clip-rule="evenodd" d="M9.45568 9.62269C9.71603 9.36234 10.1381 9.36234 10.3985 9.62269L13.2269 12.4511C13.4873 12.7115 13.4873 13.1336 13.2269 13.3939C12.9666 13.6543 12.5445 13.6543 12.2841 13.3939L9.45568 10.5655C9.19533 10.3052 9.19533 9.88304 9.45568 9.62269Z" fill="#979899"/>
</svg>
