<svg width="16" height="16" viewBox="0 0 16 16" fill="none" xmlns="http://www.w3.org/2000/svg">
<path fill-rule="evenodd" clip-rule="evenodd" d="M11.0002 5.33333H5.00016V12.6667H11.0002V5.33333ZM5.00016 4C4.26378 4 3.66683 4.59695 3.66683 5.33333V12.6667C3.66683 13.403 4.26378 14 5.00016 14H11.0002C11.7365 14 12.3335 13.403 12.3335 12.6667V5.33333C12.3335 4.59695 11.7365 4 11.0002 4H5.00016Z" fill="#979899"/>
<path fill-rule="evenodd" clip-rule="evenodd" d="M2.3335 4.66667C2.3335 4.29848 2.63197 4 3.00016 4H13.0002C13.3684 4 13.6668 4.29848 13.6668 4.66667C13.6668 5.03486 13.3684 5.33333 13.0002 5.33333H3.00016C2.63197 5.33333 2.3335 5.03486 2.3335 4.66667Z" fill="#979899"/>
<path fill-rule="evenodd" clip-rule="evenodd" d="M5.00016 3.33333C5.00016 2.59695 5.59712 2 6.3335 2H9.66683C10.4032 2 11.0002 2.59695 11.0002 3.33333V4.66667C11.0002 5.03486 10.7017 5.33333 10.3335 5.33333C9.96531 5.33333 9.66683 5.03486 9.66683 4.66667V3.33333H6.3335V4.66667C6.3335 5.03486 6.03502 5.33333 5.66683 5.33333C5.29864 5.33333 5.00016 5.03486 5.00016 4.66667V3.33333Z" fill="#979899"/>
<path fill-rule="evenodd" clip-rule="evenodd" d="M6.66683 6.66667C7.03502 6.66667 7.3335 6.96514 7.3335 7.33333V10.6667C7.3335 11.0349 7.03502 11.3333 6.66683 11.3333C6.29864 11.3333 6.00016 11.0349 6.00016 10.6667V7.33333C6.00016 6.96514 6.29864 6.66667 6.66683 6.66667Z" fill="#979899"/>
<path fill-rule="evenodd" clip-rule="evenodd" d="M9.3335 6.66667C9.70169 6.66667 10.0002 6.96514 10.0002 7.33333V10.6667C10.0002 11.0349 9.70169 11.3333 9.3335 11.3333C8.96531 11.3333 8.66683 11.0349 8.66683 10.6667V7.33333C8.66683 6.96514 8.96531 6.66667 9.3335 6.66667Z" fill="#979899"/>
</svg>
