<svg width="16" height="16" viewBox="0 0 16 16" fill="none" xmlns="http://www.w3.org/2000/svg">
<path fill-rule="evenodd" clip-rule="evenodd" d="M7.13807 3.52861C7.39842 3.78896 7.39842 4.21107 7.13807 4.47141L3.60948 8.00001L7.13807 11.5286C7.39842 11.789 7.39842 12.2111 7.13807 12.4714C6.87772 12.7318 6.45561 12.7318 6.19526 12.4714L2.19526 8.47141C1.93491 8.21107 1.93491 7.78896 2.19526 7.52861L6.19526 3.52861C6.45561 3.26826 6.87772 3.26826 7.13807 3.52861Z" fill="#979899"/>
<path fill-rule="evenodd" clip-rule="evenodd" d="M12.4714 3.52861C12.7318 3.78896 12.7318 4.21107 12.4714 4.47141L8.94281 8.00001L12.4714 11.5286C12.7318 11.789 12.7318 12.2111 12.4714 12.4714C12.2111 12.7318 11.7889 12.7318 11.5286 12.4714L7.5286 8.47141C7.26825 8.21107 7.26825 7.78896 7.5286 7.52861L11.5286 3.52861C11.7889 3.26826 12.2111 3.26826 12.4714 3.52861Z" fill="#979899"/>
</svg>
