<svg width="16" height="16" viewBox="0 0 16 16" fill="none" xmlns="http://www.w3.org/2000/svg">
<path fill-rule="evenodd" clip-rule="evenodd" d="M3.52876 12.4714C3.26841 12.2111 3.26841 11.789 3.52876 11.5286L7.05735 8.00001L3.52876 4.47141C3.26841 4.21107 3.26841 3.78896 3.52876 3.52861C3.78911 3.26826 4.21122 3.26826 4.47157 3.52861L8.47157 7.52861C8.59659 7.65363 8.66683 7.8232 8.66683 8.00001C8.66683 8.17682 8.59659 8.34639 8.47157 8.47142L4.47157 12.4714C4.21122 12.7318 3.78911 12.7318 3.52876 12.4714Z" fill="#979899"/>
<path fill-rule="evenodd" clip-rule="evenodd" d="M8.86209 12.4714C8.60174 12.2111 8.60174 11.789 8.86209 11.5286L12.3907 8.00001L8.86209 4.47141C8.60174 4.21107 8.60174 3.78896 8.86209 3.52861C9.12244 3.26826 9.54455 3.26826 9.8049 3.52861L13.8049 7.52861C13.9299 7.65363 14.0002 7.8232 14.0002 8.00001C14.0002 8.17682 13.9299 8.34639 13.8049 8.47142L9.8049 12.4714C9.54455 12.7318 9.12244 12.7318 8.86209 12.4714Z" fill="#979899"/>
</svg>
